<?xml version="1.0" encoding="utf-8"?>
<!-- Generator: Adobe Illustrator 18.1.1, SVG Export Plug-In . SVG Version: 6.00 Build 0)  -->
<!DOCTYPE svg PUBLIC "-//W3C//DTD SVG 1.1//EN" "http://www.w3.org/Graphics/SVG/1.1/DTD/svg11.dtd">
<svg version="1.1" id="blue_n_white" xmlns="http://www.w3.org/2000/svg" xmlns:xlink="http://www.w3.org/1999/xlink" x="0px"
	 y="0px" viewBox="0 0 522 522" enable-background="new 0 0 522 522" xml:space="preserve">
   <path fill="#011B40" d="M509.7,521.9H12.3c-6.8,0-12.3-5.5-12.3-12.3V12.2C0,5.4,5.5-0.1,12.3-0.1h497.4c6.8,0,12.3,5.5,12.3,12.3
	v497.4C522,516.3,516.5,521.9,509.7,521.9z"/>
  <rect x="152" y="485.9" fill="#FFFFFF" width="216" height="36"/>
  <path fill="#011B40" stroke="#FFFFFF" stroke-width="16" stroke-linejoin="round" stroke-miterlimit="10" d="M476,188.9
	c-11-26.1-31.7-68.4-72.6-107.3C374.2,53.8,327,8.9,260,8.9c-67.2,0-114.5,45.1-143.5,72.7C75.5,120.5,55,162.8,44,188.9
	c0,0.2,0,0.1,0,1.1h432C476,189,476,189.1,476,188.9z"/>
  <path fill="#011B40" stroke="#FFFFFF" stroke-width="16" stroke-linejoin="round" stroke-miterlimit="10" d="M44,190
	c0,59,0,119.1,0,178.9c0,0.2,0.3,0.5,0.4,0.7l430.9,0.4c0.2-0.4,0.7-0.7,0.7-1.1c0-59.8,0-119.9,0-178.9H44z"/>
  <path fill="#011B40" stroke="#FFFFFF" stroke-width="16" stroke-linejoin="round" stroke-miterlimit="10" d="M44.4,369.6
	c5.7,8.8,14.4,21.3,26.4,35.2c25.8,29.9,93.2,108,189.2,108.1c96.7,0.1,164.6-79.2,189.3-107.9c11.8-13.7,20.3-26.1,26-35
	L44.4,369.6z"/>
  <line fill="#FFFFFF" stroke="#FFFFFF" stroke-width="16" stroke-linecap="round" stroke-linejoin="round" stroke-miterlimit="10" x1="44" y1="189" x2="476" y2="189"/>
  <line fill="#FFFFFF" stroke="#FFFFFF" stroke-width="16" stroke-linecap="round" stroke-linejoin="round" stroke-miterlimit="10" x1="44" y1="369" x2="476" y2="369"/>
  <rect x="0" y="206.9" fill="#FFFFFF" width="44" height="144"/>
  <rect x="476" y="206.9" fill="#FFFFFF" width="46" height="144"/>
  <rect x="242" y="107.9" fill="#FFFFFF" width="36" height="163"/>
  <rect x="134" y="252.9" fill="#FFFFFF" width="36" height="116"/>
  <rect x="350" y="252.9" fill="#FFFFFF" width="36" height="116"/>
  <path fill="#FFFFFF" d="M179,424c54,0,108,0,162,0c-6,6-35.3,35.5-81,35.5C251.7,459.5,212.1,458,179,424z"/>
</svg>
